<?xml version="1.0" encoding="utf-8"?>
<svg width="397px" height="111px" viewBox="0 0 397 111" version="1.1" xmlns:xlink="http://www.w3.org/1999/xlink" xmlns="http://www.w3.org/2000/svg">
  <desc>Created with Lunacy</desc>
  <g id="MCVERSIONS">
    <g id="MC" fill="#6C63FF">
      <path d="M54.5002 28.4652L54.5002 28.4659L61.0716 5.02905L76.1776 5.02905L76.1776 105.917L61.6019 105.917L61.6055 57.1345L47.9353 105.917L32.8504 105.917L32.8322 105.851L19.1838 57.1476L19.1838 105.917L4.608 105.917L4.608 5.02905L19.7147 5.02905L26.2862 28.4652L26.3291 28.6158L26.3807 28.8019L40.3965 78.8185L54.4056 28.8019L54.4122 28.7779L54.4427 28.6696L54.5002 28.4652ZM112.786 105.917L101.636 105.917C92.7584 105.917 85.536 98.6987 85.536 89.8252L85.536 21.1213C85.536 12.2478 92.7584 5.02905 101.636 5.02905L112.786 5.02905C121.09 5.02905 127.973 11.2492 128.797 19.4972C128.851 20.0543 128.878 20.6005 128.878 21.1213L128.878 33.9842L114.309 33.9842L114.309 21.1213C114.309 20.2812 113.626 19.5975 112.786 19.5975L101.636 19.5975C100.791 19.5975 100.104 20.2812 100.104 21.1213L100.104 89.8252C100.104 90.6653 100.791 91.349 101.636 91.349L112.786 91.349C113.626 91.349 114.309 90.6653 114.309 89.8252L114.309 76.9623L128.878 76.9623L128.878 89.8252C128.878 90.3467 128.85 90.893 128.797 91.4486C127.973 99.6973 121.09 105.917 112.786 105.917Z" />
    </g>
    <g id="GROUP" fill="#3F3D56">
      <path d="M324.693 89.8252C324.693 90.6653 324.01 91.349 323.17 91.349L312.02 91.349C311.175 91.349 310.488 90.6653 310.488 89.8252L310.488 5.02686L295.92 5.02686L295.92 89.8252C295.92 98.6987 303.142 105.917 312.02 105.917L323.17 105.917C332.043 105.917 339.262 98.6987 339.262 89.8252L339.262 5.02686L324.693 5.02686L324.693 89.8252ZM233.998 59.3718L233.998 21.1213C233.998 12.2478 226.779 5.02905 217.906 5.02905L190.656 5.02905L190.656 19.5975L190.659 19.5975L190.659 60.8955L190.656 60.8955L190.656 75.464L190.659 75.464L190.659 105.919L205.228 105.919L205.228 75.464L210.363 75.464L218.88 105.851L218.899 105.917L234.035 105.917L225.033 73.7962C230.563 71.0637 233.998 65.5446 233.998 59.3718ZM259.46 5.02905L270.61 5.02905C279.482 5.02905 286.702 12.2486 286.702 21.1213L286.702 89.8252C286.702 98.6987 279.483 105.917 270.61 105.917L259.46 105.917C250.582 105.917 243.36 98.6987 243.36 89.8252L243.36 21.1213C243.36 12.2478 250.582 5.02905 259.46 5.02905ZM348.48 5.02905L375.73 5.02905C384.604 5.02905 391.823 12.2486 391.823 21.1213L391.823 59.3703C391.823 68.2438 384.604 75.4626 375.73 75.4626L363.049 75.4626L363.049 105.919L348.48 105.919L348.48 5.02905ZM181.439 105.917L181.439 49.5848L166.87 49.5848L166.87 76.9623L166.869 76.9623L166.869 89.8252C166.869 90.6653 166.186 91.349 165.346 91.349L154.196 91.349C153.351 91.349 152.665 90.6653 152.665 89.8252L152.665 21.1213C152.665 20.2812 153.351 19.5975 154.196 19.5975L165.346 19.5975C166.186 19.5975 166.869 20.2812 166.869 21.1213L166.869 33.9842L181.438 33.9842L181.438 21.1213C181.438 20.6005 181.411 20.0543 181.357 19.4972C180.533 11.2492 173.65 5.02905 165.346 5.02905L154.196 5.02905C145.318 5.02905 138.096 12.2478 138.096 21.1213L138.096 89.8252C138.096 98.6987 145.318 105.917 154.196 105.917L181.439 105.917ZM259.46 19.5975C258.615 19.5975 257.928 20.2812 257.928 21.1213L257.928 89.8252C257.928 90.6653 258.615 91.349 259.46 91.349L270.61 91.349C271.45 91.349 272.133 90.6653 272.133 89.8252L272.133 21.1213C272.133 20.2812 271.45 19.5975 270.61 19.5975L259.46 19.5975ZM377.254 59.3703L377.254 21.1213C377.254 20.2812 376.57 19.5975 375.73 19.5975L363.049 19.5975L363.049 60.8941L375.73 60.8941C376.57 60.8941 377.254 60.2104 377.254 59.3703ZM219.429 59.3725C219.429 60.2126 218.746 60.8963 217.906 60.8963L205.228 60.8963L205.228 19.5983L217.906 19.5983C218.746 19.5983 219.429 20.282 219.429 21.122L219.429 59.3725Z" />
    </g>
  </g>
</svg>